<mxfile host="Electron" agent="Mozilla/5.0 (Windows NT 10.0; Win64; x64) AppleWebKit/537.36 (KHTML, like Gecko) draw.io/27.0.5 Chrome/134.0.6998.205 Electron/35.3.0 Safari/537.36" version="27.0.5">
  <diagram name="Page-1" id="JmR4SOKmINmXwZ7EHYMN">
    <mxGraphModel dx="1281" dy="634" grid="1" gridSize="10" guides="1" tooltips="1" connect="1" arrows="1" fold="1" page="1" pageScale="1" pageWidth="827" pageHeight="1169" math="0" shadow="0">
      <root>
        <mxCell id="0" />
        <mxCell id="1" parent="0" />
        <mxCell id="ecgUz87v4UzsMpFa28s3-1" value="&lt;&lt;abstract&gt;&gt;&#xa;TicketPurchaseProcess" style="swimlane;fontStyle=1;align=center;verticalAlign=top;childLayout=stackLayout;horizontal=1;startSize=49.125;horizontalStack=0;resizeParent=1;resizeParentMax=0;resizeLast=0;collapsible=0;marginBottom=0;" vertex="1" parent="1">
          <mxGeometry x="295" y="20" width="304" height="255.125" as="geometry" />
        </mxCell>
        <mxCell id="ecgUz87v4UzsMpFa28s3-2" style="line;strokeWidth=1;fillColor=none;align=left;verticalAlign=middle;spacingTop=-1;spacingLeft=3;spacingRight=3;rotatable=0;labelPosition=right;points=[];portConstraint=eastwest;strokeColor=inherit;" vertex="1" parent="ecgUz87v4UzsMpFa28s3-1">
          <mxGeometry y="49.125" width="304" height="8" as="geometry" />
        </mxCell>
        <mxCell id="ecgUz87v4UzsMpFa28s3-3" value="+executePurchaseProcess()" style="text;strokeColor=none;fillColor=none;align=left;verticalAlign=top;spacingLeft=4;spacingRight=4;overflow=hidden;rotatable=0;points=[[0,0.5],[1,0.5]];portConstraint=eastwest;" vertex="1" parent="ecgUz87v4UzsMpFa28s3-1">
          <mxGeometry y="57.125" width="304" height="33" as="geometry" />
        </mxCell>
        <mxCell id="ecgUz87v4UzsMpFa28s3-4" value="+displayOptions()" style="text;strokeColor=none;fillColor=none;align=left;verticalAlign=top;spacingLeft=4;spacingRight=4;overflow=hidden;rotatable=0;points=[[0,0.5],[1,0.5]];portConstraint=eastwest;" vertex="1" parent="ecgUz87v4UzsMpFa28s3-1">
          <mxGeometry y="90.125" width="304" height="33" as="geometry" />
        </mxCell>
        <mxCell id="ecgUz87v4UzsMpFa28s3-5" value="+selectOption()" style="text;strokeColor=none;fillColor=none;align=left;verticalAlign=top;spacingLeft=4;spacingRight=4;overflow=hidden;rotatable=0;points=[[0,0.5],[1,0.5]];portConstraint=eastwest;" vertex="1" parent="ecgUz87v4UzsMpFa28s3-1">
          <mxGeometry y="123.125" width="304" height="33" as="geometry" />
        </mxCell>
        <mxCell id="ecgUz87v4UzsMpFa28s3-6" value="+processPayment()" style="text;strokeColor=none;fillColor=none;align=left;verticalAlign=top;spacingLeft=4;spacingRight=4;overflow=hidden;rotatable=0;points=[[0,0.5],[1,0.5]];portConstraint=eastwest;" vertex="1" parent="ecgUz87v4UzsMpFa28s3-1">
          <mxGeometry y="156.125" width="304" height="33" as="geometry" />
        </mxCell>
        <mxCell id="ecgUz87v4UzsMpFa28s3-7" value="+storeTicket()" style="text;strokeColor=none;fillColor=none;align=left;verticalAlign=top;spacingLeft=4;spacingRight=4;overflow=hidden;rotatable=0;points=[[0,0.5],[1,0.5]];portConstraint=eastwest;" vertex="1" parent="ecgUz87v4UzsMpFa28s3-1">
          <mxGeometry y="189.125" width="304" height="33" as="geometry" />
        </mxCell>
        <mxCell id="ecgUz87v4UzsMpFa28s3-8" value="+displayTicket()" style="text;strokeColor=none;fillColor=none;align=left;verticalAlign=top;spacingLeft=4;spacingRight=4;overflow=hidden;rotatable=0;points=[[0,0.5],[1,0.5]];portConstraint=eastwest;" vertex="1" parent="ecgUz87v4UzsMpFa28s3-1">
          <mxGeometry y="222.125" width="304" height="33" as="geometry" />
        </mxCell>
        <mxCell id="ecgUz87v4UzsMpFa28s3-9" value="StandardTicketPurchase" style="swimlane;fontStyle=1;align=center;verticalAlign=top;childLayout=stackLayout;horizontal=1;startSize=40.57142857142857;horizontalStack=0;resizeParent=1;resizeParentMax=0;resizeLast=0;collapsible=0;marginBottom=0;" vertex="1" parent="1">
          <mxGeometry x="20" y="352" width="249" height="130.57142857142856" as="geometry" />
        </mxCell>
        <mxCell id="ecgUz87v4UzsMpFa28s3-10" style="line;strokeWidth=1;fillColor=none;align=left;verticalAlign=middle;spacingTop=-1;spacingLeft=3;spacingRight=3;rotatable=0;labelPosition=right;points=[];portConstraint=eastwest;strokeColor=inherit;" vertex="1" parent="ecgUz87v4UzsMpFa28s3-9">
          <mxGeometry y="40.57142857142857" width="249" height="8" as="geometry" />
        </mxCell>
        <mxCell id="ecgUz87v4UzsMpFa28s3-11" value="+displayOptions()" style="text;strokeColor=none;fillColor=none;align=left;verticalAlign=top;spacingLeft=4;spacingRight=4;overflow=hidden;rotatable=0;points=[[0,0.5],[1,0.5]];portConstraint=eastwest;" vertex="1" parent="ecgUz87v4UzsMpFa28s3-9">
          <mxGeometry y="48.57142857142857" width="249" height="41" as="geometry" />
        </mxCell>
        <mxCell id="ecgUz87v4UzsMpFa28s3-12" value="+processPayment()" style="text;strokeColor=none;fillColor=none;align=left;verticalAlign=top;spacingLeft=4;spacingRight=4;overflow=hidden;rotatable=0;points=[[0,0.5],[1,0.5]];portConstraint=eastwest;" vertex="1" parent="ecgUz87v4UzsMpFa28s3-9">
          <mxGeometry y="89.57142857142857" width="249" height="41" as="geometry" />
        </mxCell>
        <mxCell id="ecgUz87v4UzsMpFa28s3-13" value="AccessibleTicketPurchase" style="swimlane;fontStyle=1;align=center;verticalAlign=top;childLayout=stackLayout;horizontal=1;startSize=40.57142857142857;horizontalStack=0;resizeParent=1;resizeParentMax=0;resizeLast=0;collapsible=0;marginBottom=0;" vertex="1" parent="1">
          <mxGeometry x="319" y="352" width="255" height="130.57142857142856" as="geometry" />
        </mxCell>
        <mxCell id="ecgUz87v4UzsMpFa28s3-14" style="line;strokeWidth=1;fillColor=none;align=left;verticalAlign=middle;spacingTop=-1;spacingLeft=3;spacingRight=3;rotatable=0;labelPosition=right;points=[];portConstraint=eastwest;strokeColor=inherit;" vertex="1" parent="ecgUz87v4UzsMpFa28s3-13">
          <mxGeometry y="40.57142857142857" width="255" height="8" as="geometry" />
        </mxCell>
        <mxCell id="ecgUz87v4UzsMpFa28s3-15" value="+displayOptions()" style="text;strokeColor=none;fillColor=none;align=left;verticalAlign=top;spacingLeft=4;spacingRight=4;overflow=hidden;rotatable=0;points=[[0,0.5],[1,0.5]];portConstraint=eastwest;" vertex="1" parent="ecgUz87v4UzsMpFa28s3-13">
          <mxGeometry y="48.57142857142857" width="255" height="41" as="geometry" />
        </mxCell>
        <mxCell id="ecgUz87v4UzsMpFa28s3-16" value="+processPayment()" style="text;strokeColor=none;fillColor=none;align=left;verticalAlign=top;spacingLeft=4;spacingRight=4;overflow=hidden;rotatable=0;points=[[0,0.5],[1,0.5]];portConstraint=eastwest;" vertex="1" parent="ecgUz87v4UzsMpFa28s3-13">
          <mxGeometry y="89.57142857142857" width="255" height="41" as="geometry" />
        </mxCell>
        <mxCell id="ecgUz87v4UzsMpFa28s3-17" value="GroupTicketPurchase" style="swimlane;fontStyle=1;align=center;verticalAlign=top;childLayout=stackLayout;horizontal=1;startSize=36.888888888888886;horizontalStack=0;resizeParent=1;resizeParentMax=0;resizeLast=0;collapsible=0;marginBottom=0;" vertex="1" parent="1">
          <mxGeometry x="624" y="340" width="276" height="155.88888888888889" as="geometry" />
        </mxCell>
        <mxCell id="ecgUz87v4UzsMpFa28s3-18" style="line;strokeWidth=1;fillColor=none;align=left;verticalAlign=middle;spacingTop=-1;spacingLeft=3;spacingRight=3;rotatable=0;labelPosition=right;points=[];portConstraint=eastwest;strokeColor=inherit;" vertex="1" parent="ecgUz87v4UzsMpFa28s3-17">
          <mxGeometry y="36.888888888888886" width="276" height="8" as="geometry" />
        </mxCell>
        <mxCell id="ecgUz87v4UzsMpFa28s3-19" value="+displayOptions()" style="text;strokeColor=none;fillColor=none;align=left;verticalAlign=top;spacingLeft=4;spacingRight=4;overflow=hidden;rotatable=0;points=[[0,0.5],[1,0.5]];portConstraint=eastwest;" vertex="1" parent="ecgUz87v4UzsMpFa28s3-17">
          <mxGeometry y="44.888888888888886" width="276" height="37" as="geometry" />
        </mxCell>
        <mxCell id="ecgUz87v4UzsMpFa28s3-20" value="+processPayment()" style="text;strokeColor=none;fillColor=none;align=left;verticalAlign=top;spacingLeft=4;spacingRight=4;overflow=hidden;rotatable=0;points=[[0,0.5],[1,0.5]];portConstraint=eastwest;" vertex="1" parent="ecgUz87v4UzsMpFa28s3-17">
          <mxGeometry y="81.88888888888889" width="276" height="37" as="geometry" />
        </mxCell>
        <mxCell id="ecgUz87v4UzsMpFa28s3-21" value="+generateGroupTicket()" style="text;strokeColor=none;fillColor=none;align=left;verticalAlign=top;spacingLeft=4;spacingRight=4;overflow=hidden;rotatable=0;points=[[0,0.5],[1,0.5]];portConstraint=eastwest;" vertex="1" parent="ecgUz87v4UzsMpFa28s3-17">
          <mxGeometry y="118.88888888888889" width="276" height="37" as="geometry" />
        </mxCell>
        <mxCell id="ecgUz87v4UzsMpFa28s3-22" value="" style="curved=1;startArrow=block;startSize=16;startFill=0;endArrow=none;exitX=0;exitY=0.8;entryX=0.5;entryY=0;rounded=0;" edge="1" parent="1" source="ecgUz87v4UzsMpFa28s3-1" target="ecgUz87v4UzsMpFa28s3-9">
          <mxGeometry relative="1" as="geometry">
            <Array as="points">
              <mxPoint x="145" y="315" />
            </Array>
          </mxGeometry>
        </mxCell>
        <mxCell id="ecgUz87v4UzsMpFa28s3-23" value="" style="curved=1;startArrow=block;startSize=16;startFill=0;endArrow=none;exitX=0.5;exitY=1;entryX=0.5;entryY=0;rounded=0;" edge="1" parent="1" source="ecgUz87v4UzsMpFa28s3-1" target="ecgUz87v4UzsMpFa28s3-13">
          <mxGeometry relative="1" as="geometry">
            <Array as="points" />
          </mxGeometry>
        </mxCell>
        <mxCell id="ecgUz87v4UzsMpFa28s3-24" value="" style="curved=1;startArrow=block;startSize=16;startFill=0;endArrow=none;exitX=1;exitY=0.79;entryX=0.5;entryY=0;rounded=0;" edge="1" parent="1" source="ecgUz87v4UzsMpFa28s3-1" target="ecgUz87v4UzsMpFa28s3-17">
          <mxGeometry relative="1" as="geometry">
            <Array as="points">
              <mxPoint x="762" y="315" />
            </Array>
          </mxGeometry>
        </mxCell>
      </root>
    </mxGraphModel>
  </diagram>
</mxfile>
